<svg width="58" height="58" viewBox="0 0 58 58" fill="none" xmlns="http://www.w3.org/2000/svg">
<g clip-path="url(#clip0_996_436)">
<path d="M0.543945 4.84229V5.30325V32.1317L4.60048 34.7131L16.9545 15.2602L0.543945 4.84229Z" fill="#243C66"/>
<path d="M57.7045 5.30325V4.84229L41.2939 15.2602L53.6479 34.7131L57.7045 32.1317V5.30325Z" fill="#0097DD"/>
<path d="M47.1021 38.6773C50.6055 36.4647 51.5274 31.6706 49.1304 27.9828L46.1802 23.3731C43.7831 19.6854 39.0813 18.4868 35.5779 20.6995L25.0678 27.3375C21.5644 29.5501 20.6425 34.3442 23.0395 38.032L25.9897 42.6417C28.3868 46.3294 33.0886 47.5279 36.592 45.3153L47.1021 38.6773Z" fill="#E29D81"/>
<path d="M45.8112 39.5072C47.1019 38.6775 47.4707 36.9258 46.6409 35.6351C45.8112 34.3444 44.0595 33.9756 42.7688 34.8054L23.408 47.0672C22.1173 47.8969 21.7486 49.6486 22.5783 50.9393C23.408 52.23 25.1597 52.5988 26.4505 51.769L45.8112 39.5072Z" fill="#E29D81"/>
<path d="M23.1313 38.0319L26.0816 42.6416C28.4786 46.3293 33.1805 47.5279 36.6839 45.3152L47.194 38.6772C50.6973 36.4646 51.6193 31.6705 49.2222 27.9827L46.272 23.373" fill="#D3856A"/>
<path d="M33.8258 34.9906C35.1165 34.1609 35.4853 32.4092 34.6556 31.1185C33.8258 29.8278 32.0741 29.459 30.7834 30.2888L11.4227 42.6427C10.132 43.4725 9.76321 45.2242 10.593 46.5149C11.4227 47.8056 13.1744 48.1744 14.4651 47.3446L33.8258 34.9906Z" fill="#E29D81"/>
<path d="M37.882 38.6781C39.1727 37.8484 39.5415 36.0967 38.7117 34.806C37.882 33.5153 36.1303 33.1465 34.8396 33.9763L15.4788 46.3302C14.1881 47.16 13.8194 48.9117 14.6491 50.2024C15.4788 51.4931 17.2305 51.8619 18.5212 51.0321L37.882 38.6781Z" fill="#E29D81"/>
<path d="M33.7335 28.6288C35.0243 27.7991 35.393 26.0474 34.5633 24.7567C33.7335 23.466 31.9819 23.0972 30.6911 23.9269L11.3304 36.2809C10.0397 37.1107 9.67092 38.8624 10.5007 40.1531C11.3304 41.4438 13.0821 41.8126 14.3728 40.9828L33.7335 28.6288Z" fill="#E29D81"/>
<path d="M37.6054 19.7783C37.6054 19.7783 26.7266 21.3456 25.8046 21.6222C24.9749 21.8988 22.3934 28.168 25.3436 28.9055C28.386 29.6431 33.1801 25.7709 33.1801 25.7709L37.6054 19.7783Z" fill="#E29D81"/>
<path d="M43.143 16.3174L40.2642 18.1479L50.9505 34.9542L53.8294 33.1236L43.143 16.3174Z" fill="white"/>
<path d="M43.1373 16.3667L40.2793 18.2106L50.9738 34.9899" fill="#DFE2E5"/>
<path d="M57.7045 4.84229L41.2939 15.2602L53.6479 34.7131" fill="#00AEFF"/>
<path d="M46.8254 42.5496L45.0738 41.4433C46.0879 41.5354 47.1942 41.0745 47.7474 40.1525C48.5771 38.8618 48.2084 37.1101 46.9176 36.2804L34.0105 28.0751C34.9324 26.1391 33.0885 21.9903 32.4432 21.7137C31.6134 21.4372 21.6565 20.0543 20.7346 19.8699C17.6 18.9479 14.0044 20.3308 12.0683 23.3732L9.11812 27.9829C6.72108 31.6707 7.64302 36.4648 11.1464 38.6774L11.9761 39.2306C12.0683 39.3228 12.2527 39.5072 12.4371 39.5994L31.7978 51.9534C33.0885 52.7831 34.8402 52.4143 35.67 51.1236C36.1309 50.3861 36.2231 49.5563 35.9466 48.8188L39.6343 51.2158C40.925 52.0456 42.6767 51.6768 43.5065 50.3861C44.1518 49.4641 44.0596 48.2656 43.5065 47.4359L43.6909 47.5281C44.9816 48.3578 46.7333 47.989 47.563 46.6983C48.5771 45.131 48.2084 43.3793 46.8254 42.5496Z" fill="#F9BDA0"/>
<path d="M32.7198 50.847C32.1667 50.4782 31.9823 49.8329 32.351 49.2797L32.7198 48.6344C33.0886 48.0812 33.7339 47.8968 34.2871 48.2656C34.8403 48.6344 35.0247 49.2797 34.6559 49.8329L34.2871 50.4782C34.0105 51.0314 33.273 51.2158 32.7198 50.847Z" fill="#FFE4C7"/>
<path d="M44.7052 46.3294C44.152 45.9607 43.9676 45.3153 44.3364 44.7621L44.7052 44.1168C45.0739 43.5636 45.7193 43.3792 46.2725 43.748C46.8256 44.1168 47.01 44.7621 46.6412 45.3153L46.2725 45.9607C45.9959 46.5138 45.2583 46.6982 44.7052 46.3294Z" fill="#FFE4C7"/>
<path d="M40.6485 50.0169C40.0954 49.6482 39.911 49.0028 40.2797 48.4496L40.6485 47.8043C41.0173 47.2511 41.6627 47.0667 42.2158 47.4355C42.769 47.8043 42.9534 48.4496 42.5846 49.0028L42.2158 49.6482C41.847 50.2013 41.2017 50.3857 40.6485 50.0169Z" fill="#FFE4C7"/>
<path d="M44.7975 40.0604C44.2443 39.6916 44.0599 39.0463 44.4287 38.4931L44.7975 37.8477C45.1662 37.2946 45.8116 37.1102 46.3648 37.479C46.9179 37.8477 47.1023 38.4931 46.7335 39.0463L46.4569 39.6916C46.0882 40.2448 45.3506 40.337 44.7975 40.0604Z" fill="#FFE4C7"/>
<path d="M4.39768 33.164L7.27637 34.9941L17.9602 18.1888L15.0815 16.3587L4.39768 33.164Z" fill="white"/>
<path d="M15.1104 16.3667L17.9684 18.2106L7.27393 34.9899" fill="#DFE2E5"/>
<path d="M0.543945 4.84229L16.9545 15.2602L4.60048 34.7131" fill="#1A2B49"/>
<path d="M6.99751 22.5435C6.44434 23.4654 5.24582 23.6498 4.41608 23.0966C3.49414 22.5435 3.30975 21.3449 3.86291 20.5152C4.41608 19.5933 5.6146 19.4089 6.44434 19.962C7.27409 20.5152 7.55067 21.7137 6.99751 22.5435Z" fill="#FFC114"/>
<path d="M46.9176 36.1878L34.0105 27.9825C34.9324 26.0465 33.0885 21.8977 32.4432 21.6212C32.0744 21.4368 29.493 21.068 26.8193 20.6992L23.8691 29.9186L48.1162 37.6629C47.9318 37.1097 47.563 36.5566 46.9176 36.1878Z" fill="#E8AB92"/>
<path d="M34.6555 22.2663C35.4853 23.6492 35.854 27.2447 34.7477 27.8901L25.4361 29.9184C24.3298 30.5637 22.8547 29.9184 22.0249 28.6276C21.1952 27.2447 21.4718 25.6774 22.5781 25.0321L29.2161 21.1599C30.3224 20.5146 33.7336 20.699 34.5633 21.9897L34.6555 22.2663Z" fill="#E29D81"/>
</g>
<defs>
<clipPath id="clip0_996_436">
<rect width="57.1603" height="57.1603" fill="white" transform="translate(0.543945 0.0390625)"/>
</clipPath>
</defs>
</svg>
